<svg width="40" height="40" viewBox="0 0 40 40" fill="none" xmlns="http://www.w3.org/2000/svg">
<g id="check/done">
<path id="check" fill-rule="evenodd" clip-rule="evenodd" d="M15.0927 24.4287C13.8438 23.0756 12.595 21.7226 11.3461 20.3695C10.5639 19.6279 10.7148 19.5238 9.71302 20.4866C9.26014 20.9289 8.77981 21.4884 8.43672 21.8917C7.90151 22.5422 7.81916 22.9716 8.40928 23.6351C10.4815 25.9509 12.5401 28.2537 14.6123 30.5695C15.2985 31.3241 16.2317 30.9989 16.7807 30.2703C21.7074 23.7392 26.6205 16.9999 31.808 10.6769C32.0825 10.3256 32.1374 9.98735 31.4649 10.0004C30.1749 10.0394 29.3926 10.2476 28.3085 11.2103C23.9581 14.9963 19.594 19.5629 15.0927 24.4287Z" fill="#EF4D9C"/>
</g>
</svg>
