<svg>
    <symbol id="octagon" xmlns="http://www.w3.org/2000/svg">
        <path d="M22.3586 2.02995C27.0871 -0.67665 32.9129 -0.67665 37.6414 2.02995L52.3586 10.4541C57.0871 13.1607 60 18.1627 60 23.5759V40.4241C60 45.8373 57.0871 50.8393 52.3586 53.5459L37.6414 61.97C32.9129 64.6767 27.0871 64.6767 22.3586 61.97L7.6414 53.5459C2.91289 50.8393 0 45.8373 0 40.4241V23.5759C0 18.1627 2.91289 13.1607 7.6414 10.4541L22.3586 2.02995Z" fill="inherit"/>
    </symbol>

    <symbol id="triangle" xmlns="http://www.w3.org/2000/svg">
        <path d="M51.0242 16.3999C63.0107 23.3696 62.9872 40.7531 50.9818 47.6901L26.9697 61.565C14.9643 68.502 -0.0188067 59.7898 1.772e-05 45.883L0.0376687 18.0678C0.0564931 4.16101 15.0632 -4.51024 27.0497 2.45952L51.0242 16.3999Z" fill="inherit"/>
    </symbol>

    <symbol id="circle" xmlns="http://www.w3.org/2000/svg">
        <circle cx="30" cy="30" r="30" fill="inherit"/>
    </symbol>
</svg>