<svg>
    <symbol id="search" xmlns="http://www.w3.org/2000/svg">
        <path d="M22 20.453L16.6472 15.1002C17.7996 13.6199 18.4927 11.7635 18.4927 9.74635C18.4927 4.92383 14.5689 1 9.74635 1C4.92383 1 1 4.92383 1 9.74635C1 14.5689 4.92383 18.4927 9.74635 18.4927C11.7646 18.4927 13.6199 17.7985 15.1002 16.6472L20.453 22L22 20.453ZM9.74745 16.3061C6.12974 16.3061 3.18769 13.3641 3.18769 9.74635C3.18769 6.12864 6.12974 3.18659 9.74745 3.18659C13.3652 3.18659 16.3072 6.12864 16.3072 9.74635C16.3072 13.3641 13.3652 16.3061 9.74745 16.3061Z" fill="inherit"/>
    </symbol>

    <symbol id="catalogprebiotic" xmlns="http://www.w3.org/2000/svg">
            <path d="M41.9991 85.0001C18.8417 85.0001 0 66.1583 0 42.9992C0 19.8401 18.8417 0.998291 41.9991 0.998291C65.1583 0.998291 84 19.8401 84 42.9992C84 66.1583 65.1583 85.0001 41.9991 85.0001ZM41.9991 2.55291C19.6964 2.55291 1.55285 20.6965 1.55285 42.9992C1.55285 65.3019 19.6964 83.4437 41.9991 83.4437C64.3018 83.4437 82.4454 65.3019 82.4454 42.9992C82.4454 20.6965 64.3001 2.55291 41.9991 2.55291Z" fill="#4FAB1A"/>
            <path class="path-change" d="M30.0201 41.2935C29.6965 40.7167 29.4186 40.1064 29.1918 39.4575C28.1049 36.3307 28.6097 33.3868 29.5066 30.3022C30.115 28.2059 29.8759 25.8477 28.5323 23.7461C26.8335 21.0889 23.6011 19.6538 20.4972 20.2007C15.2706 21.1223 12.4903 26.4755 14.3526 31.1182C15.8334 34.8077 19.8852 35.8788 22.4756 38.5835C25.3017 41.5344 25.7484 46.0365 25.0151 49.923C24.7284 51.4372 25.0133 53.0797 26.0386 54.5394C27.3294 56.3789 29.6402 57.3654 31.8596 57.0102C35.8833 56.3683 38.0376 52.276 36.6149 48.7307C36.1752 47.6333 35.4454 46.7435 34.552 46.1033C32.7108 44.7844 31.1087 43.2297 30.0201 41.2935Z" fill="inherit"/>
            <path class="path-change" d="M54.1112 25.8738C53.5362 26.1974 52.9242 26.4753 52.277 26.7004C49.1484 27.7872 46.2063 27.2825 43.1199 26.3856C41.0237 25.7771 38.6654 26.0163 36.5656 27.3616C33.9083 29.0605 32.4733 32.2928 33.0202 35.3967C33.9417 40.6233 39.2967 43.4037 43.9377 41.5396C47.6273 40.0606 48.6983 36.007 51.4048 33.4165C54.3557 30.5922 58.856 30.1455 62.7443 30.8789C64.2567 31.1638 65.8992 30.8806 67.3606 29.8554C69.1984 28.5645 70.1849 26.2537 69.8315 24.0343C69.1878 20.0106 65.0955 17.8563 61.5519 19.2791C60.4528 19.7187 59.5647 20.4485 58.9228 21.3419C57.6038 23.1832 56.0475 24.7853 54.1112 25.8738Z" fill="inherit"/>
            <path class="path-change" d="M40.5874 64.0588C41.0552 63.5911 41.5687 63.1585 42.1315 62.768C44.8503 60.8793 47.8206 60.5733 51.0335 60.605C53.216 60.6261 55.423 59.7608 57.0832 57.9002C59.1829 55.5472 59.6947 52.0493 58.3318 49.2074C56.035 44.4222 50.1314 43.1877 46.1622 46.2318C43.0108 48.6517 43.0688 52.8424 41.1625 56.0677C39.082 59.5832 34.8667 61.2275 30.9256 61.5669C29.3903 61.7006 27.885 62.4146 26.7559 63.7986C25.3332 65.5361 25.0044 68.028 25.9452 70.068C27.6493 73.7681 32.1707 74.7407 35.2008 72.4175C36.1399 71.6965 36.7994 70.7574 37.1757 69.7233C37.9495 67.5902 39.0152 65.6275 40.5874 64.0588Z" fill="inherit"/>
            <path class="path-change" d="M15.267 48.4653C17.0192 48.4653 18.4395 47.0449 18.4395 45.2928C18.4395 43.5406 17.0192 42.1202 15.267 42.1202C13.5149 42.1202 12.0945 43.5406 12.0945 45.2928C12.0945 47.0449 13.5149 48.4653 15.267 48.4653Z" fill="inherit"/>
            <path class="path-change" d="M48.2304 22.0121C49.9826 22.0121 51.403 20.5917 51.403 18.8395C51.403 17.0874 49.9826 15.667 48.2304 15.667C46.4783 15.667 45.0579 17.0874 45.0579 18.8395C45.0579 20.5917 46.4783 22.0121 48.2304 22.0121Z" fill="inherit"/>
            <path class="path-change" d="M46.7092 72.6073C48.4613 72.6073 49.8817 71.1869 49.8817 69.4348C49.8817 67.6826 48.4613 66.2622 46.7092 66.2622C44.9571 66.2622 43.5367 67.6826 43.5367 69.4348C43.5367 71.1869 44.9571 72.6073 46.7092 72.6073Z" fill="inherit"/>
            <path fill-rule="evenodd" clip-rule="evenodd" d="M49.234 22.7894C47.5634 22.7894 46.0087 21.7219 45.4706 20.0477C44.8041 17.9743 45.949 15.7444 48.0224 15.0796C50.1045 14.4078 52.3222 15.5597 52.9887 17.6314C53.314 18.6355 53.2243 19.7065 52.7407 20.6456C52.2606 21.583 51.4411 22.2776 50.4369 22.5977C50.0377 22.7278 49.6315 22.7894 49.234 22.7894ZM49.2288 16.4461C48.9878 16.4461 48.7416 16.483 48.4989 16.5604C47.2415 16.9631 46.5469 18.3155 46.9496 19.5729C47.3541 20.8285 48.7135 21.5179 49.9621 21.1204L49.9639 21.1187C50.5723 20.9252 51.0683 20.5032 51.362 19.9351C51.6539 19.3653 51.7066 18.7182 51.5114 18.1097C51.1843 17.0932 50.2417 16.4461 49.2288 16.4461ZM37.6676 41.7857C38.9989 42.5243 40.4673 42.9007 41.9445 42.9007C43.0542 42.9007 44.1657 42.6879 45.2296 42.2623C47.7542 41.2479 49.1328 39.179 50.4672 37.1765L50.4685 37.1746C51.2493 36.0016 51.9862 34.8955 52.9411 33.981C56.3651 30.7029 61.5372 31.2551 63.6018 31.642C65.4114 31.9867 67.265 31.577 68.8091 30.4919C70.9071 29.0182 72.0027 26.4365 71.6017 23.9129C71.2623 21.7991 70.0207 19.993 68.1953 18.9589C66.3681 17.9266 64.2068 17.7789 62.2653 18.5597C61.0747 19.0363 60.0477 19.8418 59.2932 20.8899C57.8811 22.856 56.3898 24.2664 54.7331 25.1967C54.1792 25.5062 53.6041 25.7647 53.022 25.967C50.1643 26.9606 47.4842 26.5561 44.338 25.6399C41.883 24.9294 39.333 25.3058 37.1453 26.7056C34.2172 28.5803 32.6538 32.1257 33.2552 35.5321C33.7265 38.2104 35.3357 40.4896 37.6676 41.7857ZM37.9824 28.0158C39.1941 27.242 40.5394 26.8445 41.9006 26.8445C42.5688 26.8445 43.2424 26.9395 43.9054 27.1312C46.8739 27.9911 50.0939 28.6243 53.532 27.4337C54.2003 27.2016 54.8598 26.9043 55.4911 26.5508L55.4929 26.5491C57.3535 25.5045 59.0083 23.9499 60.5559 21.7956C61.1362 20.9884 61.9276 20.3676 62.8438 20C64.3475 19.3951 66.0146 19.5094 67.4286 20.3078C68.8407 21.108 69.8027 22.5096 70.0647 24.1556C70.3689 26.0655 69.5037 28.1002 67.9139 29.2187C66.7146 30.061 65.2866 30.3776 63.8885 30.1138C59.0206 29.1993 54.6417 30.1965 51.8649 32.8572C50.7886 33.8913 49.9673 35.1206 49.1724 36.3129C47.9168 38.2034 46.7279 39.9849 44.6475 40.8202C42.6128 41.638 40.3442 41.492 38.422 40.428C36.5016 39.3588 35.1774 37.4771 34.7852 35.263C34.2911 32.4668 35.5766 29.5563 37.9824 28.0158ZM26.4021 54.9858C27.6736 56.7972 29.7698 57.8611 31.9382 57.8611C32.2864 57.8611 32.6346 57.8348 32.9846 57.7803C35.1002 57.4409 36.9063 56.1993 37.9403 54.3738C38.9744 52.5484 39.1186 50.3871 38.3378 48.4438C37.8612 47.2532 37.054 46.2244 36.0059 45.4735C34.038 44.0631 32.6293 42.5718 31.7008 40.9117H31.699C31.3913 40.3665 31.1328 39.7914 30.9288 39.2006C29.9369 36.3463 30.3414 33.6644 31.2541 30.5165C31.9663 28.065 31.5865 25.5115 30.1884 23.3238C28.3137 20.3957 24.7701 18.8271 21.3619 19.4355C18.6836 19.9086 16.4044 21.516 15.1101 23.8461C13.814 26.1763 13.6399 28.9355 14.6317 31.4081C15.6447 33.9318 17.7163 35.3123 19.7194 36.6471L19.7261 36.6516C20.8966 37.4307 22.002 38.1666 22.9148 39.1196C26.1928 42.5454 25.6406 47.7157 25.2502 49.7786C24.9073 51.5917 25.317 53.4418 26.4021 54.9858ZM21.631 20.9673C22.0284 20.8969 22.4294 20.8617 22.8286 20.8617C25.2291 20.8617 27.5575 22.0998 28.88 24.1627C30.0319 25.967 30.3449 28.0685 29.7593 30.0839C28.8993 33.056 28.2662 36.2795 29.4586 39.7105C29.6925 40.3894 29.9914 41.0488 30.3414 41.6731C31.386 43.5338 32.9406 45.1886 35.0984 46.7362C35.9056 47.3148 36.5264 48.1044 36.894 49.0224C37.4972 50.5225 37.3846 52.1932 36.5862 53.6053C35.786 55.0192 34.3844 55.9812 32.7366 56.2432C30.8391 56.551 28.7938 55.684 27.6753 54.0925C26.8329 52.8949 26.5164 51.4651 26.7784 50.067C27.6964 45.2062 26.6975 40.8255 24.0385 38.0469C23.0045 36.9689 21.7734 36.1476 20.5811 35.3545L20.5787 35.3529C18.6891 34.0943 16.907 32.9074 16.0738 30.8296C15.2578 28.7913 15.4002 26.5227 16.4677 24.6023C17.5352 22.6837 19.4151 21.3577 21.631 20.9673ZM32.5131 74.4486C31.9609 74.4486 31.4034 74.3817 30.853 74.2446C28.8183 73.7416 27.1353 72.3347 26.2401 70.3897C25.1709 68.0701 25.5314 65.288 27.1564 63.3025C28.3505 61.8429 30.0211 60.9495 31.8606 60.7894C33.9516 60.6083 39.0797 59.7483 41.4961 55.6684C42.1695 54.5325 42.581 53.2666 43.017 51.9251L43.0173 51.9243L43.0181 51.9218C43.7635 49.6346 44.534 47.2704 46.691 45.6144C48.8066 43.9912 51.5061 43.4179 54.1018 44.0369C56.6957 44.656 58.8588 46.4181 60.0371 48.8678C61.5319 51.9858 60.9797 55.8249 58.6671 58.4188C56.9402 60.3533 54.5889 61.4208 52.0301 61.3821C48.7363 61.3715 46.0579 61.6828 43.58 63.4062C43.0683 63.7615 42.5846 64.1677 42.1415 64.6109C40.7926 65.9562 39.7357 67.7166 38.9091 69.9887C38.4677 71.1987 37.6957 72.252 36.6775 73.0329C35.4588 73.9614 34.0009 74.4486 32.5131 74.4486ZM52.0407 45.3453C50.465 45.3453 48.9191 45.8623 47.6371 46.8472C45.8626 48.2057 45.1987 50.2404 44.4968 52.3919L44.4927 52.4044L44.4874 52.4209C44.0459 53.7769 43.5893 55.1794 42.8326 56.4597C40.8718 59.7712 36.9219 61.9132 31.9925 62.3388C30.5751 62.4601 29.2843 63.153 28.3575 64.2855C27.1265 65.7909 26.8433 67.9839 27.6523 69.7408C28.3487 71.2549 29.6536 72.3453 31.2275 72.7357C32.8068 73.1261 34.444 72.7814 35.7278 71.7983C36.5122 71.1969 37.1066 70.3862 37.446 69.4559C38.3534 66.9639 39.5282 65.0207 41.0406 63.51C41.5506 63 42.1063 62.5357 42.6919 62.1295C45.6745 60.0543 48.9385 59.7976 52.0442 59.8257H52.1163C54.1844 59.8257 56.0978 58.9605 57.5065 57.3813C59.4075 55.2498 59.8612 52.0984 58.6337 49.5396C57.6595 47.5137 55.878 46.0593 53.7413 45.5458C53.175 45.4122 52.6052 45.3453 52.0407 45.3453ZM12.5089 46.5008C13.0471 48.175 14.5999 49.2407 16.2706 49.2407C16.6698 49.2407 17.0743 49.1809 17.4753 49.0508C18.4794 48.7307 19.3007 48.0361 19.7808 47.097C20.2644 46.1596 20.3523 45.0886 20.0288 44.0844C19.3622 42.011 17.1306 40.8627 15.0624 41.5327C14.0583 41.8528 13.2388 42.5492 12.7569 43.4865C12.2733 44.4256 12.1854 45.4966 12.5089 46.5008ZM15.5355 43.0135C15.7782 42.9361 16.0227 42.8992 16.2653 42.8992C17.2783 42.8992 18.2227 43.5463 18.548 44.5611C18.7432 45.1713 18.6905 45.8185 18.3985 46.3883C18.1048 46.9563 17.6089 47.3783 17.0004 47.5718L16.9987 47.5735C15.7501 47.971 14.3906 47.2816 13.9879 46.0242C13.5834 44.7686 14.2781 43.4162 15.5355 43.0135ZM45.9051 72.9466C46.4713 73.2386 47.0851 73.3863 47.7059 73.3863C48.1103 73.3863 48.5201 73.323 48.9193 73.1928C50.9909 72.5281 52.1358 70.3017 51.471 68.2265C50.8063 66.1549 48.5799 65.0065 46.503 65.6765C44.4313 66.3413 43.2865 68.5677 43.9512 70.6429C44.2713 71.647 44.9677 72.4665 45.9051 72.9466ZM46.9778 67.152C47.2205 67.0764 47.4649 67.0395 47.7076 67.0395C48.7206 67.0395 49.665 67.6884 49.9903 68.7013C50.393 69.9588 49.6984 71.3111 48.4409 71.7156C47.1923 72.1131 45.8329 71.4237 45.4302 70.1663C45.0275 68.9089 45.7204 67.5565 46.9778 67.152Z" fill="#4FAB1A"/>
    </symbol>


    <symbol id="catalogmineral" xmlns="http://www.w3.org/2000/svg">
        <path d="M41.9991 85.0001C18.8417 85.0001 0 66.1583 0 42.9992C0 19.8401 18.8417 0.998291 41.9991 0.998291C65.1583 0.998291 84 19.8401 84 42.9992C84 66.1583 65.1583 85.0001 41.9991 85.0001ZM41.9991 2.55291C19.6964 2.55291 1.55285 20.6965 1.55285 42.9992C1.55285 65.3019 19.6964 83.4437 41.9991 83.4437C64.3018 83.4437 82.4454 65.3019 82.4454 42.9992C82.4454 20.6965 64.3001 2.55291 41.9991 2.55291Z" fill="#D8AA06"/>
        <path class="path-change" fill-rule="evenodd" clip-rule="evenodd" d="M57.1975 22.8991L62.6092 21.6635C62.9939 21.5762 63.3387 21.9165 63.2588 22.2998L57.2078 51.359C57.207 51.364 57.2043 51.3685 57.2016 51.3731C57.1995 51.3767 57.1973 51.3803 57.196 51.3842C57.1443 51.5809 56.9937 51.7227 56.8144 51.7717C56.772 51.9861 56.6209 52.175 56.397 52.2542L24.0304 63.4387L21.5028 64.3118C20.9997 64.4849 20.5173 64.0054 20.6889 63.5023L24.0304 53.6881L32.415 29.0551C32.4932 28.825 32.6916 28.6671 32.9197 28.631C32.99 28.4981 33.1155 28.3937 33.2777 28.3567L57.1975 22.8991Z" fill="inherit"/>
        <path fill-rule="evenodd" clip-rule="evenodd" d="M57.3341 52.2503C57.556 52.1036 57.7223 51.8876 57.8059 51.6429L63.9013 22.4387C63.9841 22.0391 63.8583 21.6292 63.5683 21.3421C63.2783 21.058 62.8654 20.9367 62.4658 21.0284L33.1343 27.7202C32.8941 27.7733 32.6813 27.8973 32.5196 28.0732C32.1906 28.2121 31.9196 28.4832 31.7951 28.8448L20.069 63.2906C19.9107 63.7597 20.029 64.2702 20.3812 64.6209C20.6284 64.8681 20.9539 64.9983 21.2899 64.9983C21.4319 64.9983 21.574 64.9761 21.7175 64.9272L56.6117 52.8712C56.9234 52.7624 57.1816 52.5395 57.3341 52.2503ZM56.828 49.9906L62.1392 24.4735C59.7366 28.0673 55.424 34.6905 52.0186 39.9397L56.828 49.9906ZM35.5498 28.509L60.2789 22.8681L47.861 31.4758C47.6995 31.3305 47.5016 31.2273 47.2814 31.177L35.5498 28.509ZM60.8291 24.0753L48.5127 32.613L51.3553 38.5536C54.5816 33.5821 58.4877 27.5863 60.8291 24.0753ZM50.5205 39.8405L47.4233 33.3682L39.0175 39.1951L46.355 46.2756C47.0766 45.1589 48.6352 42.748 50.5205 39.8405ZM38.2389 38.1456L46.5948 32.3535L33.8162 29.4555L38.2389 38.1456ZM33.5478 31.8089L37.1621 38.9099L34.226 41.0623L33.5478 31.8089ZM32.2215 31.611L32.9995 42.2176L22.8712 59.1157L32.2215 31.611ZM33.7928 43.3412L22.3109 62.5891L40.7958 50.2893L33.7928 43.3412ZM34.6643 42.3615L41.909 49.5486L45.4341 47.2031L37.9363 39.9618L34.6643 42.3615ZM41.9907 51.0526C45.8697 51.4014 51.5572 51.9647 54.1644 52.3303L24.8811 62.4495L41.9907 51.0526ZM43.737 49.8956L46.5367 48.0418L52.7388 50.8053C50.8522 50.5703 48.0122 50.2847 43.737 49.8956ZM55.7184 50.7026L47.4349 47.0184C48.0914 46.0027 49.4787 43.857 51.1839 41.2267L55.7184 50.7026Z" fill="#D8AA06"/>
    </symbol>

    <symbol id="catalogvitamins" xmlns="http://www.w3.org/2000/svg">
        <path d="M41.9991 85.0001C18.8417 85.0001 0 66.1583 0 42.9992C0 19.8401 18.8417 0.998291 41.9991 0.998291C65.1583 0.998291 84 19.8401 84 42.9992C84 66.1583 65.1583 85.0001 41.9991 85.0001ZM41.9991 2.55291C19.6964 2.55291 1.55285 20.6965 1.55285 42.9992C1.55285 65.3019 19.6964 83.4437 41.9991 83.4437C64.3018 83.4437 82.4454 65.3019 82.4454 42.9992C82.4454 20.6965 64.3001 2.55291 41.9991 2.55291Z" fill="#B01E65"/>
        <path  d="M35.6832 47.4511L35.432 46.1214C35.6266 46.0847 35.8563 46.0678 36.103 46.0632L36.1306 47.4174C35.9636 47.4205 35.8104 47.4281 35.6832 47.4511Z" fill="#B01E65"/>
        <path d="M35.4503 47.5339L34.2294 46.9273C34.3213 46.7312 34.4714 46.5627 34.6889 46.4141L35.4503 47.5339Z" fill="#B01E65"/>
        <path d="M38.8143 47.8343C38.4942 47.7515 38.1939 47.6841 37.9059 47.6259C37.9044 47.6259 37.8998 47.6244 37.8998 47.6244L38.174 46.2993C38.4865 46.3637 38.8082 46.4341 39.1529 46.523L38.8143 47.8343Z" fill="#B01E65"/>
        <path d="M35.4609 47.5293L34.839 46.3252C35.0243 46.2303 35.2143 46.1629 35.4211 46.123L35.6831 47.4512C35.6019 47.4665 35.5329 47.491 35.4609 47.5293Z" fill="#B01E65"/>
        <path d="M37.693 47.5845C37.4219 47.534 37.163 47.4895 36.9255 47.462L37.0818 46.1169C37.3468 46.1491 37.6379 46.1966 37.9412 46.2518L37.693 47.5845Z" fill="#B01E65"/>
        <path d="M36.901 47.4588C36.6681 47.4327 36.4598 47.422 36.2622 47.4174L36.2867 46.0632C36.5226 46.0663 36.7739 46.0801 37.0542 46.1122L36.901 47.4588Z" fill="#B01E65"/>
        <path class="path-change" d="M38.8051 73.867C37.2625 73.867 35.6953 73.5392 34.2063 72.8453C31.5623 71.6136 29.5555 69.4276 28.5567 66.6855C27.5579 63.9434 27.6881 60.9746 28.9213 58.326L34.2278 46.9318L34.2293 46.9287L35.4563 47.5001C35.4518 48.1205 38.1004 50.5409 43.4344 53.0256C48.7746 55.5119 52.3348 55.9837 52.8326 55.5487L54.0367 56.1538L54.0352 56.1584L48.7302 67.551C46.8797 71.5248 42.9259 73.867 38.8051 73.867Z" fill="inherit"/>
        <path d="M38.8051 73.867C37.2625 73.867 35.6953 73.5392 34.2063 72.8453C31.5623 71.6136 29.5555 69.4276 28.5567 66.6855C27.5579 63.9434 27.6881 60.9746 28.9213 58.326L34.2278 46.9318L34.2293 46.9287L35.4563 47.5001C35.4518 48.1205 38.1004 50.5409 43.4344 53.0256C48.7746 55.5119 52.3348 55.9837 52.8326 55.5487L54.0367 56.1538L54.0352 56.1584L48.7302 67.551C46.8797 71.5248 42.9259 73.867 38.8051 73.867ZM34.7823 48.9477L30.1499 58.8959C29.0683 61.2182 28.955 63.8178 29.8297 66.2198C30.7029 68.6203 32.4615 70.5367 34.7777 71.6152C39.5649 73.8456 45.2758 71.7653 47.5047 66.9781L52.1356 57.0269C51.5167 57.0254 50.7661 56.9427 49.8669 56.7466C47.8831 56.3161 45.3953 55.4307 42.8646 54.2512C40.3385 53.0731 38.0636 51.7419 36.4567 50.5011C35.7275 49.9389 35.1714 49.4226 34.7823 48.9477Z" fill="#B01E65"/>
        <path d="M52.7851 55.5933C52.7851 55.5918 52.7851 55.5918 52.7851 55.5902C52.7682 55.5152 52.7391 55.4447 52.6947 55.3712L53.8697 54.6941C53.9784 54.8856 54.0566 55.0786 54.104 55.2854V55.2869C54.104 55.2885 54.104 55.2885 54.104 55.29L52.7851 55.5933Z" fill="#B01E65"/>
        <path d="M52.6688 55.3297C52.6014 55.2209 52.5156 55.1045 52.413 54.9819L53.4501 54.1088C53.6017 54.2895 53.7289 54.4626 53.8284 54.6281L52.6688 55.3297Z" fill="#B01E65"/>
        <path d="M52.3286 54.8807C52.1953 54.729 52.0421 54.5713 51.8644 54.4058L52.7881 53.4147C52.9995 53.6123 53.1849 53.8038 53.3442 53.9861L52.3286 54.8807Z" fill="#B01E65"/>
        <path d="M52.0561 57.0285C51.4571 57.0285 50.7294 56.9335 49.8655 56.7467C47.8817 56.3162 45.3939 55.4308 42.8632 54.2512C40.3371 53.0732 38.0622 51.7419 36.4552 50.5011C34.5296 49.0121 33.802 47.8433 34.2279 46.9272C34.3198 46.7311 34.4699 46.5626 34.6874 46.414L34.8115 46.3374C35.0229 46.2287 35.2129 46.1613 35.4182 46.1214L35.5545 46.1092C35.6234 46.0831 35.8532 46.0678 36.0983 46.0632L36.2699 46.7403L36.2821 46.0632C36.5181 46.0663 36.7693 46.0801 37.0496 46.1122C37.3407 46.1475 37.6317 46.1965 37.9351 46.2517L38.1618 46.2961C38.4804 46.3619 38.8021 46.4339 39.1483 46.5213C39.519 46.6193 39.8668 46.7204 40.2237 46.8292L40.504 46.915C40.8748 47.0314 41.2562 47.157 41.6514 47.2979L41.1964 48.5725C40.8196 48.4392 40.455 48.3182 40.0966 48.2048L39.8377 48.1267C39.4915 48.021 39.1606 47.926 38.8481 47.8418C38.4896 47.7498 38.1878 47.6824 37.8968 47.6227L37.6808 47.5798C37.4188 47.5323 37.1599 47.4879 36.9209 47.4603C36.6651 47.4297 36.4552 47.4205 36.2576 47.4159C35.9604 47.419 35.8073 47.4266 35.6786 47.4496C35.5974 47.4649 35.5285 47.4879 35.4565 47.5262C35.4488 48.1175 38.0974 50.5379 43.4315 53.0226C48.7717 55.5089 52.3318 55.9807 52.8297 55.5457C52.7653 55.5135 52.7347 55.4445 52.6918 55.3695C52.5968 55.2178 52.5126 55.1014 52.4084 54.9804C52.1909 54.7276 52.0392 54.5683 51.8615 54.4044C51.5904 54.1608 51.4004 54.0015 51.1982 53.8376L51.0557 53.7242C50.8167 53.5373 50.5579 53.3443 50.2806 53.1498L50.4797 52.465L50.0983 53.0226C49.8394 52.8465 49.5682 52.6672 49.2848 52.4865L49.4871 51.8109L49.1255 52.3838C48.8008 52.1785 48.4546 51.9717 48.0992 51.7665L48.7778 50.5946C49.1485 50.8121 49.51 51.025 49.8471 51.238L49.965 51.313C50.3097 51.5321 50.5916 51.7205 50.8627 51.9059L51.0634 52.0453C51.356 52.2521 51.6363 52.4574 51.8937 52.6596L52.0162 52.7591C52.2705 52.9614 52.4789 53.139 52.6673 53.3091L52.7837 53.4117C52.9951 53.6093 53.1805 53.8008 53.3398 53.9831L53.4302 54.0888C53.5956 54.2864 53.7228 54.4595 53.8239 54.6265C53.9755 54.8823 54.0537 55.0769 54.1011 55.2837L54.1256 55.4231C54.1593 55.7157 54.1302 55.947 54.0337 56.1523C53.7656 56.739 53.1131 57.0285 52.0561 57.0285Z" fill="#B01E65"/>
        <path d="M54.0369 56.1538L52.8098 55.5794L54.1318 55.4476C54.1395 55.5166 54.1441 55.5809 54.1441 55.6437C54.1456 55.8321 54.1089 56.0006 54.0369 56.1538Z" fill="#B01E65"/>
        <path d="M50.1029 53.0256C49.844 52.8495 49.5728 52.6702 49.2894 52.4895L50.0171 51.3467C50.3143 51.5366 50.5977 51.7235 50.8688 51.9104L50.1029 53.0256Z" fill="#B01E65"/>
        <path d="M41.1995 48.5724C40.8226 48.4391 40.4581 48.3181 40.0996 48.2047L40.504 46.9133C40.8778 47.0298 41.2593 47.1554 41.6545 47.2963L41.1995 48.5724Z" fill="#B01E65"/>
        <path d="M49.1302 52.3868C49.1302 52.3853 49.1302 52.3868 49.1302 52.3868C49.1271 52.3853 49.1271 52.3838 49.1271 52.3838C48.7993 52.1785 48.4562 51.9732 48.1023 51.768L48.7809 50.5961C49.1501 50.8121 49.5116 51.025 49.8471 51.2379H49.8487C49.8487 51.2379 49.8486 51.2395 49.8502 51.2395L49.1302 52.3868Z" fill="#B01E65"/>
        <path d="M51.0602 53.726C50.8212 53.5391 50.5623 53.3461 50.285 53.1515L51.0633 52.0439C51.3604 52.2538 51.6408 52.4591 51.8981 52.6628L51.0602 53.726Z" fill="#B01E65"/>
        <path d="M39.8299 48.1253C39.4929 48.0226 39.162 47.9277 38.8511 47.8434L39.1942 46.5352C39.5251 46.6209 39.8713 46.722 40.2267 46.8308L39.8299 48.1253Z" fill="#B01E65"/>
        <path  d="M51.7648 54.317C51.5948 54.1623 51.4048 54.0045 51.2026 53.8391L52.0498 52.7852C52.275 52.9644 52.4833 53.1405 52.6717 53.3121C52.6733 53.3137 52.6733 53.3136 52.6748 53.3152L51.7648 54.317Z" fill="#B01E65"/>
        <path class="path-change" d="M40.3018 47.5615C40.6663 47.6764 41.0401 47.799 41.4262 47.9368L40.3018 47.5615Z" fill="inherit"/>
        <path d="M40.1255 48.2002C40.5024 48.3197 40.8777 48.4453 41.2499 48.5755C42.0572 48.8589 42.4034 47.5767 41.6023 47.2964C41.2285 47.1662 40.8547 47.0406 40.4779 46.9211C39.6629 46.6622 39.3136 47.9428 40.1255 48.2002Z" fill="#B01E65"/>
        <path class="path-change" d="M48.4408 51.1827C48.8054 51.3941 49.1577 51.604 49.4917 51.8139L48.4408 51.1827Z" fill="inherit"/>
        <path d="M48.1067 51.7558C48.4575 51.9611 48.8083 52.1709 49.156 52.3854C49.8837 52.8373 50.55 51.6899 49.827 51.2395C49.4792 51.0236 49.13 50.8137 48.7761 50.6084C48.0362 50.1795 47.3683 51.3253 48.1067 51.7558Z" fill="#B01E65"/>
        <path d="M52.6917 32.5474L51.6362 31.7018C51.7358 31.5746 51.8262 31.4552 51.889 31.3418L53.0762 31.9898C52.9828 32.1629 52.848 32.3544 52.6917 32.5474Z" fill="#B01E65"/>
        <path d="M53.3184 31.2378L51.9734 31.103L53.2158 30.5469C53.2924 30.7031 53.3291 30.8747 53.3291 31.0693C53.3291 31.1229 53.3261 31.1796 53.3184 31.2378Z" fill="#B01E65"/>
        <path d="M50.4015 34.6094L49.6034 33.5172C49.8715 33.3211 50.115 33.1312 50.3464 32.9427L51.1966 33.9982C50.9499 34.1974 50.691 34.4011 50.4015 34.6094Z" fill="#B01E65"/>
        <path d="M53.081 31.9837L51.8922 31.3388C51.929 31.2683 51.9535 31.2009 51.9719 31.1198L53.2954 31.4031C53.2525 31.61 53.1821 31.7984 53.081 31.9837Z" fill="#B01E65"/>
        <path d="M51.3819 33.8464L50.5149 32.8062C50.7263 32.6301 50.9239 32.4569 51.097 32.2915L52.0315 33.2704C51.8385 33.4542 51.6163 33.6488 51.3819 33.8464Z" fill="#B01E65"/>
        <path d="M52.0513 33.2507L51.1123 32.2748C51.2777 32.114 51.4202 31.9608 51.5474 31.8107L52.5783 32.6854C52.4251 32.8662 52.2551 33.0546 52.0513 33.2507Z" fill="#B01E65"/>
        <path class="path-change" d="M33.5093 39.9878L28.0788 28.6487C26.818 26.0139 26.6557 23.0466 27.6269 20.2922C28.595 17.5394 30.5819 15.3289 33.2167 14.0682C38.6442 11.467 45.1839 13.7725 47.7881 19.2107L53.2156 30.5437C53.2156 30.5467 53.2156 30.5467 53.2171 30.5483L51.9962 31.1335C51.5229 30.7367 47.9719 31.2438 42.6593 33.7852C37.3452 36.3281 34.718 38.7807 34.741 39.4394L33.5093 39.9878Z" fill="inherit"/>
        <path d="M33.5093 39.9878L28.0788 28.6487C26.818 26.0139 26.6557 23.0466 27.6269 20.2922C28.595 17.5394 30.5819 15.3289 33.2167 14.0682C38.6442 11.467 45.1839 13.7725 47.7881 19.2107L53.2156 30.5437C53.2156 30.5467 53.2156 30.5467 53.2171 30.5483L51.9962 31.1335C51.5229 30.7367 47.9719 31.2438 42.6593 33.7852C37.3452 36.3281 34.718 38.7807 34.741 39.4394L33.5093 39.9878ZM37.9135 14.3531C36.5318 14.3531 35.1286 14.6549 33.8004 15.2906C31.4918 16.3966 29.7516 18.333 28.9029 20.7457C28.0527 23.1569 28.1952 25.7565 29.2997 28.0666L34.0394 37.9642C34.4223 37.4847 34.9754 36.9608 35.6984 36.3894C37.2931 35.1286 39.5588 33.7714 42.0757 32.5658C44.5895 31.3632 47.0635 30.4518 49.0412 29.9999C49.9297 29.7976 50.6742 29.695 51.287 29.695C51.2931 29.695 51.3007 29.695 51.3069 29.695L46.5657 19.7974C44.9219 16.3629 41.4859 14.3531 37.9135 14.3531Z" fill="#B01E65"/>
        <path d="M34.7394 40.7829C34.5219 40.7461 34.3243 40.6833 34.1359 40.5899C34.1359 40.5883 34.1343 40.5883 34.1328 40.5883L34.7394 39.3766C34.8053 39.4088 34.8804 39.4333 34.9677 39.4501C34.9708 39.4501 34.9723 39.4501 34.9723 39.4501L34.7394 40.7829Z" fill="#B01E65"/>
        <path d="M35.4166 40.8319C35.199 40.8319 34.9984 40.8196 34.8207 40.7951L35.0122 39.4547C35.1408 39.4731 35.2879 39.4792 35.4487 39.4792L35.4564 40.8334C35.4441 40.8319 35.4304 40.8319 35.4166 40.8319Z" fill="#B01E65"/>
        <path d="M35.6232 40.8304L35.5757 39.4762C35.7779 39.4701 35.9969 39.4502 36.2374 39.4196L36.4197 40.76C36.1287 40.7998 35.8667 40.8212 35.6232 40.8304Z" fill="#B01E65"/>
        <path d="M35.4135 40.8318C35.199 40.8318 34.9984 40.8196 34.8207 40.795C34.5158 40.746 34.3197 40.6832 34.1313 40.5898L33.9965 40.5117C33.7667 40.3661 33.6059 40.1961 33.5078 39.9908C33.0712 39.0763 33.7882 37.8998 35.6969 36.3893C37.2916 35.1286 39.5573 33.7713 42.0742 32.5657C44.588 31.3632 47.062 30.4517 49.0397 29.9998C51.4126 29.4621 52.7791 29.6383 53.2156 30.5513C53.3122 30.7474 53.3458 30.9726 53.3167 31.2391L53.2922 31.4C53.2494 31.6098 53.1789 31.7998 53.0778 31.9836L53.0196 32.0816C52.9261 32.2379 52.8143 32.3926 52.6887 32.5489L52.5784 32.6837C52.4221 32.8675 52.2521 33.0544 52.0483 33.2505C51.8339 33.4542 51.6133 33.6488 51.3774 33.8464L51.1935 33.998C50.9469 34.1957 50.685 34.3994 50.3985 34.6093C50.089 34.8345 49.7903 35.0382 49.4794 35.245L49.2419 35.4028C48.9064 35.6219 48.5679 35.8348 48.2094 36.0493L47.5139 34.8881C47.8586 34.6813 48.1834 34.4745 48.4974 34.2723L48.7349 34.1145C49.0229 33.923 49.3047 33.73 49.5667 33.54C49.8669 33.3225 50.1105 33.131 50.3433 32.9441L50.9438 33.3271L50.5103 32.8078C50.7217 32.6316 50.9193 32.4585 51.0924 32.293C51.2747 32.1153 51.4172 31.9622 51.5443 31.8136L51.6332 31.7048C51.7328 31.5777 51.8232 31.4582 51.886 31.3448L51.9059 31.308C51.9365 31.2483 51.9534 31.1901 51.9687 31.1227C51.5214 30.7428 47.9674 31.2483 42.6578 33.7897C37.3437 36.3326 34.7165 38.7852 34.7395 39.4439C34.8084 39.4133 34.8804 39.4363 34.9693 39.4531C35.1393 39.4746 35.2741 39.4837 35.4472 39.4807C35.7766 39.473 35.9956 39.4531 36.2361 39.4225L36.469 40.0705L36.374 39.3995C36.5992 39.3673 36.8412 39.3244 37.0955 39.2708L37.4188 39.8943L37.2748 39.2325C37.5704 39.1682 37.8829 39.0885 38.2077 38.9982L38.3471 38.9568C38.7239 38.8496 39.0334 38.7546 39.3535 38.6504L39.5297 38.5937C39.8989 38.4712 40.2773 38.3364 40.6633 38.1924L41.1397 39.4592C40.7384 39.6124 40.3431 39.7518 39.9632 39.879L39.8085 39.9296C39.4393 40.0506 39.1146 40.1486 38.7975 40.239L38.5677 40.3049C38.2184 40.4014 37.8829 40.4856 37.5628 40.5561V40.5576L37.3759 40.5959C37.0909 40.6557 36.8213 40.7047 36.5655 40.7415L36.4062 40.7659C36.1274 40.8042 35.8654 40.8257 35.6218 40.8349L35.4518 40.8364C35.4395 40.8318 35.4258 40.8318 35.4135 40.8318Z" fill="#B01E65"/>
        <path  d="M33.9967 40.5103C33.7684 40.3648 33.6076 40.1947 33.5095 39.9894L34.7304 39.4027L33.9967 40.5103Z" fill="#B01E65"/>
        <path d="M38.799 40.2362L38.4268 38.934C38.727 38.8483 39.0365 38.7533 39.3566 38.6476L39.7764 39.9359C39.4409 40.0462 39.1161 40.1442 38.799 40.2362Z" fill="#B01E65"/>
        <path d="M48.2139 36.0495L47.5184 34.8883C47.8631 34.6815 48.1879 34.4747 48.5019 34.2725L49.2403 35.4076C48.9125 35.6205 48.5724 35.8335 48.2139 36.0495Z" fill="#B01E65"/>
        <path d="M39.9648 39.876L39.5359 38.5907C39.9005 38.4697 40.2789 38.3349 40.6649 38.1909L41.1413 39.4578C40.74 39.6079 40.3447 39.7489 39.9648 39.876Z" fill="#B01E65"/>
        <path d="M37.5644 40.5532L37.2764 39.2312C37.572 39.1669 37.8845 39.0872 38.2093 38.9968L38.5708 40.3005C38.22 40.397 37.8845 40.4828 37.5644 40.5532Z" fill="#B01E65"/>                         
        <path class="path-change" d="M53.09 44.4472C54.3227 44.4472 55.322 43.4479 55.322 42.2152C55.322 40.9826 54.3227 39.9833 53.09 39.9833C51.8573 39.9833 50.858 40.9826 50.858 42.2152C50.858 43.4479 51.8573 44.4472 53.09 44.4472Z" fill="inherit"/>
        <path d="M53.093 45.1227C51.8614 45.1227 50.7155 44.3353 50.3188 43.1021C49.8301 41.5764 50.6711 39.9357 52.1999 39.444C53.7288 38.9476 55.3679 39.7963 55.8596 41.3267C56.0971 42.065 56.0312 42.854 55.6773 43.5433C55.3235 44.2357 54.7199 44.7474 53.98 44.9848C53.6843 45.0798 53.3856 45.1227 53.093 45.1227ZM53.09 40.6588C52.9307 40.6588 52.7714 40.6848 52.612 40.7338C51.7971 40.9958 51.3467 41.872 51.6086 42.687C51.8706 43.505 52.7484 43.9554 53.5649 43.6934C53.9601 43.5663 54.2818 43.2936 54.4717 42.9244C54.6602 42.5552 54.6954 42.1355 54.5698 41.7403C54.4411 41.3435 54.1684 41.0218 53.7977 40.8303C53.5771 40.717 53.3351 40.6588 53.09 40.6588Z" fill="#B01E65"/>
        <path class="path-change" d="M35.6003 54.1732C35.6003 54.1732 31.3126 61.1112 32.8659 65.0895L35.6003 54.1732Z" fill="inherit"/>
        <path d="M35.0275 53.8377C33.0866 57.0133 30.9803 61.5201 32.2257 65.2656C32.4938 66.0714 33.776 65.7267 33.5048 64.9148C32.3789 61.5263 34.4194 57.3764 36.1718 54.5071C36.6192 53.7764 35.4718 53.11 35.0275 53.8377Z" fill="inherit"/>
        <path class="path-change" d="M45.6344 41.4644C46.8671 41.4644 47.8664 40.4651 47.8664 39.2325C47.8664 37.9998 46.8671 37.0005 45.6344 37.0005C44.4018 37.0005 43.4025 37.9998 43.4025 39.2325C43.4025 40.4651 44.4018 41.4644 45.6344 41.4644Z" fill="inherit"/>
        <path d="M45.6405 42.1431C45.3555 42.1431 45.0721 42.1018 44.7949 42.0175C43.2599 41.5549 42.3868 39.9295 42.8494 38.3931C43.073 37.6501 43.574 37.0373 44.2587 36.6697C44.9404 36.3036 45.7278 36.2239 46.4723 36.446C47.2168 36.6697 47.8296 37.1721 48.1957 37.8554C48.5633 38.5401 48.643 39.326 48.4194 40.072C48.1942 40.8165 47.6932 41.4293 47.0069 41.7954C46.5795 42.0267 46.1108 42.1431 45.6405 42.1431ZM45.6328 37.6777C45.3801 37.6777 45.1304 37.7405 44.8991 37.863C44.5329 38.0606 44.2648 38.3869 44.1454 38.7852C44.0259 39.1835 44.0672 39.6048 44.2633 39.9678C44.4594 40.334 44.7872 40.6021 45.1871 40.7215C45.5853 40.8426 46.0035 40.8012 46.3681 40.6036C46.7343 40.406 47.0024 40.0797 47.1218 39.6814C47.2413 39.2831 47.2015 38.8618 47.0039 38.4972C46.8078 38.1311 46.48 37.863 46.0817 37.7435C45.9346 37.6991 45.7845 37.6777 45.6328 37.6777Z" fill="#B01E65"/>
        <path class="path-change" d="M46.6392 48.9726C47.8719 48.9726 48.8712 47.9733 48.8712 46.7406C48.8712 45.508 47.8719 44.5087 46.6392 44.5087C45.4065 44.5087 44.4072 45.508 44.4072 46.7406C44.4072 47.9733 45.4065 48.9726 46.6392 48.9726Z" fill="inherit"/>
        <path d="M46.6361 49.6494C46.3573 49.6494 46.077 49.6096 45.7982 49.5254C45.0552 49.3017 44.4425 48.8008 44.0748 48.116C43.7071 47.4313 43.6275 46.6454 43.8527 45.9009C44.0763 45.1579 44.5773 44.5467 45.262 44.1775C45.9452 43.8099 46.7326 43.7287 47.4756 43.9554C49.0105 44.418 49.8837 46.0434 49.4211 47.5799C49.0442 48.836 47.8861 49.6494 46.6361 49.6494ZM46.1888 48.2294C47.0068 48.4776 47.88 48.0088 48.1266 47.1877C48.2461 46.7894 48.2048 46.3697 48.0087 46.0051C47.8126 45.6389 47.4848 45.3709 47.0865 45.2514C46.6897 45.1304 46.2685 45.1748 45.9039 45.3709C45.5378 45.5654 45.2697 45.8948 45.1502 46.2931C45.0307 46.6898 45.0721 47.1096 45.2681 47.4757C45.4657 47.8418 45.7905 48.1099 46.1888 48.2294Z" fill="#B01E65"/>
    </symbol>

    <symbol id="catalogwater" xmlns="http://www.w3.org/2000/svg">
        <path d="M41.9991 85.0001C18.8417 85.0001 0 66.1583 0 42.9992C0 19.8401 18.8417 0.998291 41.9991 0.998291C65.1583 0.998291 84 19.8401 84 42.9992C84 66.1583 65.1583 85.0001 41.9991 85.0001ZM41.9991 2.55291C19.6964 2.55291 1.55285 20.6965 1.55285 42.9992C1.55285 65.3019 19.6964 83.4437 41.9991 83.4437C64.3018 83.4437 82.4454 65.3019 82.4454 42.9992C82.4454 20.6965 64.3001 2.55291 41.9991 2.55291Z" fill="#E27B07"/>
        <path class="path-change" d="M24.7671 61.0013C23.0001 68.9984 18.3083 63.0654 16.5001 60.4984C14.6918 57.9314 11.0001 51.7058 18.219 51.7058" fill="inherit"/>
        <path d="M22.0809 65.6856C20.0431 65.687 17.3989 63.9378 15.3584 61.0413C12.706 57.2767 12.2222 53.2053 14.2573 51.7711C15.36 50.9946 16.9907 51.1438 18.7302 52.1779L17.9997 53.4045C16.7843 52.6809 15.6915 52.5055 15.0796 52.9376C13.9158 53.7586 14.2225 56.9505 16.525 60.219C18.829 63.489 21.7294 64.8493 22.8948 64.0312C23.5318 63.5838 23.724 62.4466 23.4104 60.9871L24.807 60.6887C25.2502 62.7544 24.8531 64.3991 23.7169 65.1993C23.2476 65.5295 22.6915 65.6856 22.0809 65.6856Z" fill="#E27B07"/>
        <path class="path-change" d="M57.1559 45.9987C57.5341 45.5574 57.6662 45.1769 57.3994 44.9185C56.0612 43.6228 52.4778 45.2749 51.0691 45.9184C49.3384 46.7094 47.6001 47.5701 45.7475 48.08C42.6978 48.9194 39.559 48.1249 36.6097 47.5183C35.8305 47.3582 39.2506 49.2477 38.8223 49.8825C38.7 50.0639 38.6094 50.277 38.6549 50.4786C38.6943 50.6527 38.829 50.7924 38.9706 50.9126C39.711 51.5402 40.738 51.8297 41.7593 51.9694C44.7801 52.3824 47.9422 51.4747 50.6758 50.2099C51.4399 49.8566 55.8239 47.5524 57.1559 45.9987Z" fill="inherit"/>
        <path  d="M43.2855 52.7843C42.7307 52.7843 42.1899 52.748 41.6617 52.6755C40.2874 52.4886 39.2545 52.0886 38.5088 51.4572C38.3136 51.2913 38.0461 51.0264 37.9582 50.6349C37.9123 50.43 37.9024 50.1233 38.0738 49.7567C37.7978 49.4431 37.0772 48.912 36.7427 48.6667C36.0207 48.1342 35.5859 47.8137 35.8437 47.2324L36.0779 46.7084L37.5052 46.9759C40.1729 47.5349 42.9342 48.1134 45.5589 47.3914C47.0991 46.9677 48.6002 46.2734 50.0526 45.6003L50.772 45.2686C53.487 44.0323 56.4213 42.9757 57.8957 44.4057C58.1537 44.6551 58.6483 45.3549 57.6979 46.463C56.2302 48.1746 51.5846 50.5762 50.9753 50.8577C48.2071 52.1389 45.6283 52.7843 43.2855 52.7843ZM39.0844 48.7505C39.5486 49.2524 39.7632 49.7625 39.4133 50.2809C39.9639 50.8189 40.7569 51.1117 41.8552 51.2623C44.3446 51.5967 47.2063 51.0295 50.3756 49.5618C51.1897 49.187 55.4088 46.94 56.613 45.5352C56.6883 45.4474 56.737 45.379 56.7705 45.3274C56.0248 44.8548 54.224 45.2648 51.4057 46.5484L50.6516 46.8968C49.1476 47.5924 47.5908 48.3129 45.9375 48.7687C43.6284 49.4028 41.3326 49.1687 39.0844 48.7505Z" fill="#E27B07"/>
        <path class="path-change" d="M66.1282 54.425C66.2743 54.3753 66.417 54.3193 66.5561 54.2555C66.8428 54.124 67.097 53.8819 67.1585 53.5746C67.2271 53.2337 67.0198 52.9074 66.7809 52.654C66.0388 51.8663 64.0455 51.5526 61.5822 51.5815C59.3068 51.6081 57.0451 51.7323 54.7651 51.7472C50.8826 51.7722 44.4111 50.532 40.2698 48.8743C38.9769 48.3568 39.5439 50.006 40.0517 52.1806C40.2121 52.8671 40.7187 53.4263 41.2882 53.8462C42.6472 54.8485 44.3778 55.1973 46.0579 55.4228C48.9726 55.8138 51.9195 55.9132 54.8603 56.012C56.1258 56.0546 57.4437 56.1544 58.7035 56.0796C59.8801 56.0097 60.8949 55.4253 62.0121 55.1381C63.3121 54.804 64.8415 54.863 66.1282 54.425Z" fill="inherit"/>
        <path d="M57.7156 56.8194C57.0618 56.8194 56.4081 56.7915 55.7671 56.7636L54.836 56.726C51.9174 56.627 48.9094 56.5267 45.9629 56.1293C44.1968 55.8924 42.357 55.5216 40.8643 54.4207C40.0559 53.824 39.5345 53.1062 39.3561 52.3439L39.1707 51.5703C38.7607 49.8935 38.514 48.88 39.1623 48.3184C39.5064 48.0229 39.9678 47.9839 40.5352 48.2125C44.4867 49.7932 50.8636 51.0587 54.7609 51.0336C55.9567 51.0252 57.1484 50.9876 58.3388 50.9486C59.4163 50.9151 60.4938 50.8804 61.5739 50.8678C64.5414 50.8385 66.4552 51.2691 67.2997 52.1654C67.8921 52.7913 67.9311 53.3529 67.8587 53.7139C67.7555 54.2198 67.3792 54.6632 66.8523 54.9044C66.6962 54.9768 66.529 55.041 66.3589 55.0995L66.3575 55.1008C65.57 55.3684 64.7324 55.4631 63.9211 55.5566C63.3036 55.6264 62.721 55.6933 62.1914 55.8299C61.8025 55.9302 61.4262 56.0682 61.0526 56.2062C60.3348 56.4695 59.5946 56.7415 58.7459 56.7915C58.4042 56.8126 58.06 56.8194 57.7156 56.8194ZM40.2105 49.6191C40.2676 50.0443 40.4295 50.7076 40.5575 51.2316L40.7471 52.0192C40.8727 52.56 41.3409 52.999 41.7117 53.2723C42.9451 54.1825 44.5745 54.503 46.1522 54.7163C49.0292 55.1025 52.0009 55.2027 54.875 55.299L55.8298 55.338C56.7748 55.3783 57.7533 55.4202 58.6607 55.3672C59.299 55.3296 59.9122 55.1052 60.5605 54.8669C60.98 54.7121 61.3996 54.5588 61.8359 54.4474C62.4603 54.2871 63.1209 54.2118 63.7592 54.138C64.5286 54.0503 65.2562 53.9679 65.8974 53.7491C66.02 53.7072 66.1399 53.6614 66.2542 53.6084C66.3864 53.5471 66.452 53.4649 66.459 53.4328C66.4577 53.4328 66.4409 53.3338 66.2626 53.1458C66.0646 52.934 65.1377 52.2468 61.5904 52.2955C60.52 52.308 59.4522 52.3416 58.3847 52.3764C57.1819 52.4154 55.9775 52.453 54.7691 52.4614C54.7299 52.4614 54.6896 52.4614 54.6493 52.4614C50.6601 52.461 44.2777 51.2024 40.2105 49.6191Z" fill="#E27B07"/>
        <path class="path-change" d="M61.6517 59.2088C63.3202 59.4544 66.7147 59.116 68.0616 58.8782C68.9459 58.7221 71.1257 58.2587 71.0681 57.0373C70.9919 55.4154 67.5028 55.0456 66.3451 54.992C64.0401 54.8854 63.5285 54.9192 61.3121 54.8527C58.437 54.7665 55.6103 54.8363 52.7336 54.6133C48.3952 54.2771 44.1347 53.5287 40.0209 52.104C40.2865 52.3402 41.8934 53.2002 41.8007 53.5543C41.7206 53.8653 41.8878 54.1812 42.0631 54.4503C43.5132 56.6763 45.8866 58.2059 48.431 59.0191C50.9752 59.8324 53.6924 59.9805 56.3666 59.8808C58.9083 59.786 59.1296 58.8375 61.6517 59.2088Z" fill="inherit"/>
        <path d="M54.9588 60.6218C52.3328 60.6218 50.1626 60.3222 48.214 59.6991C45.2954 58.7667 42.8993 57.041 41.4652 54.8389C41.2659 54.5335 41.054 54.1406 41.0666 53.689C40.8422 53.4939 40.353 53.1816 40.1229 53.0354C39.8553 52.864 39.6378 52.7176 39.5471 52.6381L36.8723 50.2588L40.2551 51.4295C44.0115 52.7313 48.1122 53.5397 52.7899 53.9021C54.6423 54.0456 56.52 54.0666 58.3361 54.0861C59.3327 54.0985 60.3293 54.1098 61.3328 54.139C62.2026 54.1654 62.809 54.1767 63.3636 54.1864C64.2278 54.2004 64.9706 54.2143 66.3783 54.2799C67.6174 54.3357 71.6722 54.6994 71.7809 57.0034C71.8407 58.2815 70.631 59.1486 68.1862 59.5805C66.7351 59.8385 63.2701 60.17 61.5488 59.9149C60.2789 59.7269 59.6977 59.9051 58.9591 60.1324C58.3194 60.3275 57.5946 60.5492 56.3931 60.5939C55.8996 60.6121 55.4217 60.6218 54.9588 60.6218ZM42.5133 53.6234C42.5093 53.6596 42.502 53.6959 42.4924 53.7335C42.4938 53.7417 42.5064 53.8241 42.6612 54.0597C43.9154 55.9874 46.0425 57.5067 48.6492 58.3388C50.7776 59.0203 53.2098 59.2839 56.3403 59.1667C57.3551 59.1291 57.9586 58.945 58.5427 58.7681C59.3816 58.5103 60.1747 58.2691 61.7554 58.5018C63.3095 58.7333 66.6059 58.4113 67.9385 58.1756C69.876 57.8328 70.3667 57.303 70.3568 57.0703C70.326 56.4291 68.4736 55.8032 66.3133 55.7044C64.9251 55.6402 64.1918 55.6278 63.3389 55.6125C62.7786 55.6027 62.1682 55.593 61.2914 55.5664C60.2961 55.5357 59.3081 55.5246 58.3212 55.5135C56.4814 55.494 54.58 55.4716 52.6791 55.3239C48.9806 55.038 45.6283 54.4777 42.5133 53.6234Z" fill="#E27B07"/>
        <path class="path-change" d="M23.4999 60.8059C25.4999 60.8059 28.6275 60.1498 30.4999 60.8059C32.4022 61.4723 35.5045 61.0484 36.9999 62.39C38.8374 64.0383 46.8047 64.32 48.9999 65.4984C51.1977 66.6779 45.2359 61.2724 47.6945 61.6772C51.0809 62.2346 54.5191 62.4445 57.9507 62.4731C59.6898 62.4875 61.4288 62.454 63.1668 62.39C64.1938 62.3522 66.3401 62.3147 66.3273 60.8059C66.3195 59.8932 65.5782 59.3976 64.7677 59.1788C62.5128 58.5697 59.9498 58.6537 57.6281 58.4765C55.0777 58.2816 52.5255 58.0624 50.0013 57.6452C48.3404 57.3706 46.7011 56.7945 45.4201 55.6821C44.9838 55.3033 44.5945 54.873 44.257 54.4053C42.7322 52.2919 41.8265 49.9922 39.6746 48.3843C37.7886 46.9747 35.3814 46.3281 33.0395 46.2748C28.0464 46.1611 21.6151 47.8765 18.207 51.7141" fill="inherit"/>
        <path d="M58.7974 63.1906C58.5103 63.1906 58.2259 63.1893 57.9444 63.1864C54.0709 63.1545 50.6796 62.8909 47.5783 62.3809C44.7906 61.9224 42.3307 61.1291 40.2664 60.0211C38.2077 58.9157 36.496 57.3698 34.84 55.8771L34.3091 55.3976C33.095 54.309 31.4517 52.9722 29.5115 52.2921C27.8013 51.6928 25.4486 51.5785 24.0325 52.6615L23.1654 51.5298C25.1281 50.0244 28.0647 50.2753 29.9826 50.9457C32.1626 51.7083 33.9495 53.1578 35.2624 54.3356L35.7977 54.8165C37.4618 56.3205 39.0354 57.7392 40.941 58.7638C42.8671 59.7965 45.1782 60.5396 47.8096 60.9732C50.8371 61.4708 54.1557 61.7286 57.9569 61.7592C59.5681 61.7745 61.263 61.7453 63.1405 61.677C64.4075 61.6325 65.6201 61.4972 65.613 60.8128C65.6102 60.3697 65.2631 60.0519 64.5816 59.8678C63.0289 59.4483 61.2726 59.3717 59.5734 59.2977C58.8962 59.2672 58.2256 59.2379 57.5733 59.189C55.1103 58.9994 52.4872 58.7806 49.885 58.3498C47.8512 58.0139 46.1928 57.2976 44.9521 56.2215C44.4784 55.8073 44.0488 55.3376 43.6782 54.822C43.2014 54.164 42.7846 53.4867 42.3722 52.8176C41.4772 51.3639 40.6325 49.991 39.2472 48.9554C37.622 47.7412 35.4099 47.0431 33.0222 46.9887C28.3278 46.8576 22.0625 48.4466 18.7411 52.1878L17.6733 51.24C21.3 47.1574 28.0142 45.4696 33.0556 45.5617C35.7375 45.623 38.2395 46.4216 40.1016 47.8127C41.706 49.0113 42.6619 50.5654 43.5874 52.0695C43.9819 52.7093 44.3805 53.3573 44.835 53.9874C45.1431 54.414 45.497 54.8029 45.8888 55.1444C46.9257 56.0447 48.3489 56.6498 50.1176 56.9425C52.6628 57.362 55.2512 57.5795 57.682 57.7649C58.319 57.8136 58.9741 57.8428 59.6361 57.8723C61.4119 57.9489 63.249 58.0297 64.9537 58.4911C66.2708 58.8465 67.0318 59.6884 67.0402 60.8006C67.0597 62.9666 64.4058 63.0614 63.2712 63.1019C61.6351 63.1612 60.1772 63.1906 58.7974 63.1906Z" fill="#E27B07"/>
        <path d="M49.1632 66.9984C48.7395 66.9984 48.3714 66.7825 48.1625 66.6611C46.6543 65.7803 44.8996 65.4833 43.0416 65.167C41.9278 64.9788 40.7781 64.7837 39.6699 64.4506C38.52 64.1064 37.4217 63.6143 36.3595 63.139C34.8429 62.4602 33.4115 61.8203 31.8658 61.582C30.0384 61.3019 28.8006 61.136 26.9413 61.2782C25.8304 61.3603 24.725 61.7269 23.6546 62.0823L23.2059 60.7276C24.3042 60.3624 25.5489 59.95 26.8368 59.8537C28.844 59.7101 30.1569 59.8745 32.0831 60.1715C33.8185 60.4377 35.4061 61.1484 36.942 61.8356C37.9623 62.293 39.0188 62.7654 40.0794 63.0845C41.1026 63.391 42.2093 63.5793 43.2797 63.7605C45.1822 64.0838 47.1489 64.4169 48.8828 65.4288C48.8968 65.4371 48.9189 65.4497 48.9442 65.4636C48.7057 63.9583 47.1544 63.0203 46.4965 62.6843C45.8274 62.3457 45.1209 62.0919 44.3708 61.823C43.678 61.575 42.9615 61.3185 42.2716 60.9854L42.8933 59.7002C43.515 59.9999 44.1644 60.2326 44.8516 60.4793C45.6099 60.7511 46.3946 61.0328 47.1432 61.4133C48.9606 62.3373 50.1344 63.7479 50.3601 65.284C50.4687 66.0199 50.2179 66.6137 49.6895 66.8757C49.5102 66.9636 49.3318 66.9984 49.1632 66.9984Z" fill="#E27B07"/>
        <path d="M23.9407 52.6817C25.6129 51.5138 27.7101 51.6646 29.5663 52.2732C30.3974 52.5458 30.7535 51.2369 29.9267 50.9657C27.7521 50.2526 25.2035 50.151 23.2563 51.5109C22.5462 52.007 23.2231 53.1829 23.9407 52.6817Z" fill="#E27B07"/>
        <path d="M24.4248 60.416C21.6214 61.9685 16.3638 54.2717 18.6982 52.1853C19.3503 51.6027 18.3886 50.6464 17.7394 51.2266C14.1739 54.4131 20.8887 63.9239 25.1092 61.5867C25.8726 61.164 25.1896 59.9925 24.4248 60.416Z" fill="#E27B07"/>
        <path class="path-change" d="M41.3261 15.848C41.1894 15.6671 40.9288 15.6673 40.7921 15.8482C39.5119 17.5451 34.3749 24.7774 34.329 31.6341C34.3168 33.4975 34.5054 35.739 35.6492 37.2399C36.7154 38.639 38.3343 39.5928 40.0716 39.7991C42.0565 40.0347 44.1575 39.3175 45.5901 37.8478C47.1662 36.2311 47.5396 33.8029 47.5726 31.6347C47.5734 31.5812 47.574 31.5277 47.5744 31.4744C47.62 24.6262 42.5914 17.5256 41.3261 15.848Z" fill="inherit"/>
        <path d="M40.8391 40.5573C40.5547 40.5573 40.2704 40.5421 39.9873 40.5071C38.068 40.2799 36.2799 39.2471 35.081 37.672C33.7416 35.9143 33.6036 33.3818 33.6148 31.6297C33.6622 24.6535 38.6842 17.4584 40.2216 15.4193C40.4223 15.1531 40.7275 14.9998 41.0579 14.9983C41.0579 14.9983 41.0579 14.9983 41.0593 14.9983C41.3882 14.9983 41.692 15.1502 41.8942 15.4151L41.8956 15.418C43.4065 17.4223 48.3351 24.5031 48.2877 31.4791L48.2864 31.6463C48.239 34.6932 47.5239 36.8857 46.1009 38.345C44.7224 39.7614 42.8016 40.5573 40.8391 40.5573ZM41.0595 16.6879C39.5583 18.7549 35.0841 25.437 35.0422 31.6381C35.0256 34.0579 35.4103 35.7487 36.2158 36.808C37.1834 38.0764 38.6188 38.9085 40.1549 39.091C41.9516 39.2974 43.8277 38.6352 45.0779 37.3501C46.2362 36.1626 46.8187 34.2907 46.8592 31.6243L47.5742 31.4753L46.8606 31.4711C46.9022 25.2851 42.5356 18.727 41.0595 16.6879Z" fill="#E27B07"/>
        <path d="M36.8757 31.6528C36.5376 34.1135 37.6757 36.5046 40.1375 37.2673C40.9729 37.5261 41.3303 36.2178 40.498 35.96C39.3039 35.5898 38.555 34.7403 38.284 33.5315C38.2041 33.1755 38.1724 32.813 38.1726 32.4485C38.1727 32.3295 38.2316 31.6618 38.1833 32.0134C38.3004 31.1601 36.9942 30.7909 36.8757 31.6528Z" fill="#E27B07"/>
    </symbol>

    <symbol id="vk" xmlns="http://www.w3.org/2000/svg">
        <circle opacity="0.5" cx="20" cy="20" r="19.5" stroke="white"/>
        <circle cx="20" cy="20" r="20" fill="inherit"/>
        <path d="M27.9153 23.9457C27.9003 23.9107 27.8824 23.877 27.8617 23.8448C27.5833 23.3623 27.0521 22.7714 26.2693 22.0698L26.254 22.0526L26.245 22.0464L26.2361 22.039H26.2272C25.9907 21.8301 25.7657 21.6095 25.5529 21.378C25.3805 21.1663 25.341 20.9472 25.4355 20.7269C25.5031 20.5607 25.7534 20.2124 26.1863 19.6757C26.4136 19.3926 26.5937 19.1649 26.7277 18.9938C27.6893 17.7616 28.1043 16.9739 27.9779 16.6304L27.9293 16.5517C27.8961 16.5024 27.8093 16.4593 27.6701 16.4212C27.4963 16.3775 27.3148 16.3699 27.1376 16.399L24.737 16.4163C24.6986 16.4015 24.6425 16.404 24.571 16.4212L24.4624 16.4446L24.4203 16.4655L24.3884 16.4901C24.3528 16.513 24.3213 16.5412 24.2951 16.5738C24.2618 16.617 24.2343 16.6642 24.2134 16.7141C23.9645 17.3375 23.6665 17.9416 23.3221 18.5211C23.1178 18.8547 22.9275 19.1415 22.7564 19.3852C22.5827 19.6277 22.4397 19.8074 22.3222 19.9231C22.2048 20.0388 22.1 20.1324 22.0068 20.2013C21.9111 20.2715 21.8383 20.2998 21.7885 20.2887L21.648 20.2579C21.5698 20.2084 21.5054 20.1412 21.4603 20.0622C21.4083 19.9639 21.3762 19.857 21.3658 19.7471C21.3318 19.5118 21.3236 19.2738 21.3415 19.0369C21.3466 18.8719 21.3492 18.7587 21.3492 18.6996C21.3492 18.4965 21.3543 18.2749 21.362 18.0374L21.3837 17.4711C21.3901 17.3308 21.3926 17.1843 21.3926 17.0305C21.3946 16.9076 21.3848 16.7848 21.3632 16.6637C21.3444 16.5755 21.3153 16.4896 21.2764 16.4076C21.2412 16.3282 21.1814 16.2612 21.1053 16.2156C21.0188 16.1648 20.9244 16.1278 20.8256 16.1061C20.4549 16.034 20.0775 15.999 19.6994 16.0014C18.6676 15.9891 18.0036 16.0556 17.7086 16.1935C17.5886 16.2546 17.4813 16.3363 17.3919 16.4347C17.2923 16.5529 17.2783 16.6157 17.3498 16.628C17.6831 16.676 17.9193 16.7905 18.0585 16.9714L18.1108 17.0686C18.1479 17.1376 18.1875 17.2607 18.2258 17.4379C18.2654 17.6152 18.2896 17.8109 18.3011 18.0251C18.3279 18.4153 18.3279 18.7501 18.3011 19.0282C18.2805 19.2455 18.2541 19.4622 18.2219 19.6782C18.2031 19.8089 18.1658 19.9364 18.1108 20.0573C18.0585 20.1533 18.0278 20.2136 18.0087 20.2345C17.9982 20.2504 17.9843 20.2638 17.9678 20.2739C17.896 20.3003 17.8199 20.314 17.7431 20.3145C17.6639 20.3145 17.5694 20.2764 17.4596 20.2013C17.332 20.1113 17.2159 20.0072 17.1135 19.8911C16.9627 19.7195 16.8272 19.5359 16.7087 19.3421C16.5388 19.0711 16.3828 18.7922 16.2414 18.5063L16.1086 18.2737C16.0256 18.1235 15.9132 17.9044 15.7676 17.6189C15.6221 17.3333 15.4956 17.0551 15.3833 16.788C15.3459 16.6845 15.2763 16.5947 15.1841 16.5307L15.1419 16.5049C15.0425 16.445 14.9319 16.4044 14.8163 16.3855L12.5344 16.4015C12.2994 16.4015 12.1424 16.452 12.0594 16.5541L12.0274 16.6021C12.0067 16.6417 11.9974 16.6859 12.0006 16.7301C12.0006 16.788 12.0172 16.8606 12.0504 16.9468C12.3837 17.7026 12.7464 18.43 13.1397 19.1329C13.5317 19.832 13.8713 20.3982 14.1599 20.8266C14.4485 21.2537 14.7422 21.6612 15.0436 22.039C15.3424 22.4206 15.5416 22.6643 15.6399 22.7702C15.7128 22.8531 15.789 22.9332 15.8685 23.0102L16.0754 23.2035C16.2095 23.3315 16.4048 23.4854 16.6653 23.6651C16.922 23.8448 17.208 24.0208 17.5222 24.1956C17.8376 24.3716 18.2015 24.5107 18.6191 24.6215C19.0354 24.7323 19.4414 24.7753 19.8347 24.7544H20.7924C20.9577 24.7498 21.1155 24.6867 21.2355 24.5772L21.2687 24.5378C21.3316 24.4239 21.3624 24.2962 21.3581 24.1673C21.3508 23.9587 21.3692 23.75 21.413 23.5457C21.4565 23.3598 21.5012 23.2207 21.5561 23.1272C21.602 23.0399 21.6619 22.9602 21.7336 22.8908C21.7762 22.8461 21.8242 22.8064 21.8766 22.7727C21.8969 22.761 21.9188 22.7523 21.9417 22.7468C22.0745 22.7025 22.2341 22.7444 22.4142 22.8711C22.5942 22.9979 22.7615 23.153 22.9211 23.3376C23.0795 23.5223 23.2697 23.7291 23.4919 23.9605C23.7141 24.1907 23.9082 24.3618 24.0755 24.475L24.2428 24.571C24.3513 24.635 24.4969 24.6929 24.6757 24.7483C24.8255 24.7993 24.9863 24.8129 25.143 24.7877L27.2743 24.7557C27.4447 24.7647 27.6146 24.7308 27.7672 24.6572C27.8847 24.587 27.9536 24.5169 27.9753 24.4332C27.9984 24.3444 28.0001 24.2518 27.9804 24.1624C27.9647 24.0886 27.9429 24.0161 27.9153 23.9457Z" fill="white"/>
    </symbol>

    <symbol id="ok" xmlns="http://www.w3.org/2000/svg">
        <circle opacity="0.5" cx="20" cy="20" r="19.5" stroke="white"/>
        <circle cx="20" cy="20" r="20" fill="inherit"/>
        <path d="M20.0734 15.0622C20.4595 15.081 20.8235 15.2476 21.0901 15.5275C21.3567 15.8074 21.5054 16.1791 21.5054 16.5657C21.5054 16.9522 21.3567 17.3239 21.0901 17.6038C20.8235 17.8837 20.4595 18.0504 20.0734 18.0692C19.2465 18.0692 18.5705 17.3955 18.5705 16.5663C18.5705 15.737 19.2465 15.0622 20.0734 15.0622ZM20.0734 20.1934C21.0358 20.1931 21.9588 19.8108 22.6395 19.1305C23.3203 18.4502 23.7032 17.5275 23.7041 16.5651C23.6869 15.6137 23.2969 14.707 22.618 14.0403C21.9391 13.3736 21.0255 13 20.074 13C19.1224 13 18.2089 13.3736 17.53 14.0403C16.8511 14.707 16.4611 15.6137 16.4438 16.5651C16.4448 17.5273 16.8275 18.4498 17.508 19.1301C18.1885 19.8104 19.1112 20.1928 20.0734 20.1934ZM21.543 23.1553C22.2893 22.9834 23.0016 22.6883 23.6507 22.282C23.7689 22.2075 23.8712 22.1105 23.9519 21.9964C24.0326 21.8824 24.09 21.7536 24.1209 21.6173C24.1518 21.4811 24.1555 21.3401 24.1319 21.2024C24.1083 21.0647 24.0578 20.933 23.9833 20.8148C23.9088 20.6966 23.8118 20.5942 23.6977 20.5136C23.5837 20.4329 23.4548 20.3755 23.3186 20.3446C23.1823 20.3137 23.0413 20.3099 22.9036 20.3335C22.7659 20.3571 22.6342 20.4076 22.5161 20.4821C21.7839 20.9409 20.9374 21.1842 20.0734 21.1842C19.2094 21.1842 18.3629 20.9409 17.6307 20.4821C17.5125 20.4075 17.3806 20.357 17.2428 20.3334C17.105 20.3099 16.9638 20.3138 16.8275 20.3449C16.6912 20.376 16.5624 20.4338 16.4484 20.5148C16.3344 20.5959 16.2376 20.6986 16.1635 20.8172C16.0891 20.9352 16.0387 21.0667 16.0152 21.2042C15.9917 21.3417 15.9955 21.4825 16.0264 21.6185C16.0573 21.7545 16.1146 21.8831 16.1952 21.997C16.2758 22.1109 16.3781 22.2077 16.4961 22.282C17.1446 22.6886 17.8566 22.9837 18.6026 23.1553L16.5745 25.1845C16.4246 25.3328 16.3222 25.5223 16.2805 25.729C16.2388 25.9357 16.2596 26.1502 16.3403 26.345C16.421 26.5398 16.5579 26.7061 16.7336 26.8228C16.9093 26.9394 17.1157 27.0011 17.3266 26.9999C17.4665 26.9999 17.6051 26.9723 17.7343 26.9187C17.8636 26.8651 17.981 26.7865 18.0798 26.6874L20.0734 24.6938L22.0693 26.6874C22.1679 26.7865 22.2851 26.8651 22.4142 26.9187C22.5432 26.9724 22.6816 27 22.8214 27C22.9612 27 23.0995 26.9724 23.2286 26.9187C23.3577 26.8651 23.4749 26.7865 23.5734 26.6874C23.6723 26.5888 23.7508 26.4717 23.8043 26.3428C23.8579 26.2138 23.8854 26.0756 23.8854 25.936C23.8854 25.7963 23.8579 25.6581 23.8043 25.5291C23.7508 25.4002 23.6723 25.2831 23.5734 25.1845L21.543 23.1553Z" fill="white"/>
    </symbol>

    <symbol id="fb" xmlns="http://www.w3.org/2000/svg">
        <circle opacity="0.5" cx="20" cy="20" r="19.5" stroke="white"/>
        <circle cx="20" cy="20" r="20" fill="inherit"/>
        <path d="M20.9939 16.8983C20.9939 16.3591 21.0483 16.0685 21.8781 16.0685H22.9872V14H21.2116C19.0797 14 18.3299 15.0034 18.3299 16.6898V17.9315H17V20H18.3299V26H20.9888V20H22.7644L23.0006 17.9315H20.9909L20.9939 16.8983Z" fill="white"/>
    </symbol>

    <symbol id="insta" xmlns="http://www.w3.org/2000/svg">
        <circle opacity="0.5" cx="20" cy="20" r="19.5" stroke="white"/>
        <circle cx="20" cy="20" r="20" fill="inherit"/>
        <path d="M24.1417 16.6898C24.672 16.6898 25.1018 16.26 25.1018 15.7297C25.1018 15.1994 24.672 14.7695 24.1417 14.7695C23.6114 14.7695 23.1815 15.1994 23.1815 15.7297C23.1815 16.26 23.6114 16.6898 24.1417 16.6898Z" fill="white"/>
        <path d="M19.8707 15.8926C17.6018 15.8926 15.7626 17.7311 15.7626 20C15.7626 22.2689 17.6018 24.1081 19.8707 24.1081C22.1395 24.1081 23.978 22.2689 23.978 20C23.978 17.7311 22.1401 15.8926 19.8707 15.8926ZM19.8707 22.6669C18.3977 22.6669 17.2037 21.4729 17.2037 20C17.2037 18.5278 18.3977 17.3338 19.8707 17.3338C21.3435 17.3338 22.5369 18.5278 22.5369 20C22.5369 21.4729 21.3441 22.6669 19.8707 22.6669Z" fill="white"/>
        <path d="M23.1732 13.0102C25.2774 13.0102 26.9892 14.722 26.9892 16.8261V23.1739C26.9892 25.2786 25.278 26.9904 23.1732 26.9904H16.8261C14.7214 26.9904 13.0096 25.2786 13.0096 23.1739V16.8261C13.0096 14.722 14.7214 13.0102 16.8261 13.0102H23.1732ZM23.1732 12H16.8261C14.1605 12 12 14.1605 12 16.8261V23.1739C12 25.8395 14.1611 28 16.8261 28H23.1739C25.8389 28 28 25.8395 28 23.1739V16.8261C28 14.1605 25.8382 12 23.1732 12Z" fill="white"/>
    </symbol>

    <symbol id="tweet" xmlns="http://www.w3.org/2000/svg">
        <circle opacity="0.5" cx="20" cy="20" r="19.5" stroke="white"/>
        <circle cx="20" cy="20" r="20" fill="inherit"/>
        <path d="M26.5248 15.6043C25.6633 15.9266 25.5448 15.8823 25.9677 15.4019C26.2815 15.0605 26.6554 14.4411 26.6554 14.2602C26.6554 14.2302 26.5032 14.2841 26.3319 14.38C26.1498 14.4866 25.7448 14.6459 25.4405 14.7418L24.8954 14.9239L24.3994 14.5705C24.1251 14.38 23.7417 14.1643 23.5404 14.0997C23.0229 13.9499 22.2345 13.9727 21.7685 14.1428C20.5046 14.622 19.7043 15.8607 19.7966 17.2156L19.8253 17.738L19.3197 17.6745C17.4783 17.4289 15.8705 16.5975 14.5059 15.1994L13.835 14.5058L13.6673 15.0197C13.3019 16.1602 13.5343 17.3666 14.2927 18.1776C14.6976 18.6258 14.6078 18.6904 13.9093 18.4233C13.6673 18.3381 13.4541 18.2748 13.4337 18.3046C13.363 18.3801 13.6086 19.3505 13.8003 19.7338C14.0627 20.267 14.5994 20.7905 15.184 21.1008L15.68 21.3452L15.093 21.3572C14.5263 21.3572 14.5095 21.368 14.5682 21.5908C14.7707 22.2845 15.5686 23.02 16.46 23.341L17.0853 23.5662L16.5378 23.9077C15.7291 24.3977 14.7779 24.6769 13.8279 24.696C13.3714 24.7092 13 24.7511 13 24.781C13 24.8889 14.2328 25.4867 14.9528 25.7202C17.1068 26.4139 19.6659 26.1144 21.5876 24.9307C22.9546 24.0887 24.3156 22.4125 24.9553 20.7905C25.2991 19.9255 25.643 18.3466 25.643 17.5883C25.643 17.0983 25.673 17.0348 26.2397 16.4478C26.5715 16.1063 26.8877 15.7325 26.9489 15.6247C27.0507 15.4246 27.0423 15.4246 26.5248 15.6043Z" fill="white"/>
    </symbol>

    <symbol id="yt" xmlns="http://www.w3.org/2000/svg">
        <circle opacity="0.5" cx="20" cy="20" r="19.5" stroke="white"/>
        <circle cx="20" cy="20" r="20" fill="inherit"/>
        <path d="M27.7858 15.8777C27.5883 15.1435 27.0094 14.5647 26.2753 14.367C24.9341 14 19.5693 14 19.5693 14C19.5693 14 14.2047 14 12.8635 14.3531C12.1435 14.5506 11.5504 15.1436 11.3529 15.8777C11 17.2188 11 20 11 20C11 20 11 22.7952 11.3529 24.1223C11.5507 24.8564 12.1293 25.4352 12.8636 25.6329C14.2188 26 19.5695 26 19.5695 26C19.5695 26 24.9341 26 26.2753 25.6469C27.0095 25.4493 27.5883 24.8705 27.786 24.1364C28.1389 22.7952 28.1389 20.0141 28.1389 20.0141C28.1389 20.0141 28.153 17.2188 27.7858 15.8777ZM17.8612 22.5694V17.4306L22.3223 20L17.8612 22.5694Z" fill="white"/>
    </symbol>

    <symbol id="arrow" xmlns="http://www.w3.org/2000/svg">
        <path fill-rule="evenodd" clip-rule="evenodd" d="M9.78518 8.37076L1.47281 0.0583801L0.0585938 1.47259L7.29293 8.70693L0.156171 15.8437L1.57038 17.2579L10.1173 8.71103L9.78109 8.37485L9.78518 8.37076Z" fill="white"/>
    </symbol>

    <symbol id="close" xmlns="http://www.w3.org/2000/svg">
        <path fill-rule="evenodd" clip-rule="evenodd" d="M11.0918 11.6464L0.364258 22.3576L1.0719 23.0641L11.7994 12.3529L22.9279 23.4645L23.6356 22.7579L12.5071 11.6464L23.4636 0.706567L22.7559 0L11.7994 10.9398L1.24392 0.400355L0.536278 1.10692L11.0918 11.6464Z" fill="inherit"/>
    </symbol>

    <symbol id="burger" xmlns="http://www.w3.org/2000/svg">
        <path fill-rule="evenodd" clip-rule="evenodd" d="M24 3H0V5H24V3ZM24 19H0V21H24V19ZM6 11H24V13H6V11Z" fill="inherit"/>
    </symbol>

    <symbol id="strelka" xmlns="http://www.w3.org/2000/svg">
        <path d="M4.07384 0.3125H6.99183L11.999 5.822L7.0091 11.3125H4.05658L8.0278 6.9619H-0.000976562V4.64411H8.04507L4.07384 0.3125Z" fill="inherit"/>
    </symbol>

    <symbol id="phone" xmlns="http://www.w3.org/2000/svg">

        <path d="M15.7571 19.5482C15.0087 19.5191 14.1122 19.2964 13.1328 18.8827C10.9856 17.9765 8.6778 16.2606 6.63453 14.0521C4.59067 11.843 3.05907 9.40842 2.32159 7.19736C1.65144 5.18704 1.71282 3.5608 2.48646 2.84563C2.5977 2.74271 2.71106 2.63199 2.82819 2.51779C3.53535 1.82972 4.3343 1.05554 5.35046 1.13139C6.0505 1.18767 6.71296 1.64965 7.37504 2.5424C9.3314 5.1789 8.36918 6.05398 7.25551 7.06858L7.05886 7.24876C6.8766 7.41739 6.5135 8.21698 9.47782 11.421C10.4454 12.4668 11.2752 13.237 11.9439 13.7095C12.365 14.007 13.121 14.4617 13.4503 14.157L13.6484 13.9721C14.7451 12.9429 15.692 12.0545 18.167 14.2076C19.0057 14.937 19.4143 15.6327 19.4161 16.3362C19.4183 17.3548 18.5783 18.0928 17.8369 18.7438C17.7145 18.8517 17.5954 18.9562 17.4841 19.0585C17.1001 19.4144 16.5018 19.5771 15.7571 19.5482Z" stroke="#EF4D9C" stroke-width="1.8"/>
    </symbol>

    <symbol id="slider-arrow" xmlns="http://www.w3.org/2000/svg">
        <g filter="url(#filter0_b_3733_4515)">
        <path d="M20.4097 6.55994C25.2043 9.34784 25.1949 16.3012 20.3927 19.076L10.7879 24.626C5.98573 27.4008 -0.00752267 23.9159 7.088e-06 18.3532L0.0150675 7.22712C0.0225972 1.6644 6.02528 -1.80409 10.8199 0.983808L20.4097 6.55994Z" fill="#A3E07E"/>
        </g>
        <path d="M14.2803 13.2803C14.5732 12.9874 14.5732 12.5126 14.2803 12.2197L9.50736 7.4467C9.21447 7.15381 8.73959 7.15381 8.4467 7.4467C8.15381 7.73959 8.15381 8.21447 8.4467 8.50736L12.6893 12.75L8.4467 16.9926C8.15381 17.2855 8.15381 17.7604 8.4467 18.0533C8.73959 18.3462 9.21447 18.3462 9.50736 18.0533L14.2803 13.2803ZM12.25 13.5H13.75V12H12.25V13.5Z" fill="white"/>
        <defs>
        <filter id="filter0_b_3733_4515" x="-20" y="-20" width="64" height="65.6001" filterUnits="userSpaceOnUse" color-interpolation-filters="sRGB">
        <feFlood flood-opacity="0" result="BackgroundImageFix"/>
        <feGaussianBlur in="BackgroundImageFix" stdDeviation="10"/>
        <feComposite in2="SourceAlpha" operator="in" result="effect1_backgroundBlur_3733_4515"/>
        <feBlend mode="normal" in="SourceGraphic" in2="effect1_backgroundBlur_3733_4515" result="shape"/>
        </filter>
        </defs>
    </symbol>


    <symbol id="email" xmlns="http://www.w3.org/2000/svg" >
        <g clip-path="url(#clip0_238_8428)">
        <path d="M19.2145 0.79001C18.7065 0.280014 18.0315 0 17.3145 0L2.68952 0C1.20645 0 0 1.20721 0 2.6912L0 12.6934C0 14.1774 1.20645 15.3854 2.68952 15.3854H17.3105C18.7936 15.3854 20 14.1774 20 12.6934V2.69443C20.0016 1.97704 19.7226 1.30001 19.2145 0.79001ZM1.53766 2.69443C1.53766 2.16264 2.15806 1.53846 2.68871 1.53846H17.3097C17.8403 1.53846 18.4615 2.16345 18.4615 2.69443V12.6926V12.7798C18.4172 13.2696 17.8153 13.8462 17.3137 13.8462H2.68952C2.15806 13.8462 1.53846 13.2236 1.53846 12.6926L1.53766 2.69443Z" fill="white"/>
        <path d="M7.38859 7.27719L4.11334 10.2999C3.80898 10.588 3.79401 11.0716 4.0777 11.379C4.22881 11.5359 4.43124 11.6229 4.63724 11.6229C4.8304 11.6229 5.01501 11.5495 5.15686 11.4182L8.53333 8.30425L9.49987 9.16797C9.64242 9.29279 9.82205 9.36126 10.0088 9.36126C10.1977 9.36126 10.3844 9.28779 10.5213 9.16084L11.5149 8.27001L14.8664 11.4211C15.0061 11.5552 15.1929 11.6308 15.391 11.6308C15.6013 11.6308 15.7973 11.5466 15.9435 11.3933C16.0846 11.2442 16.1594 11.0495 16.153 10.8434C16.1473 10.6394 16.0625 10.4504 15.9149 10.312L12.6518 7.24723L15.8928 4.41285C16.205 4.1297 16.23 3.64541 15.9499 3.33302C15.8038 3.17183 15.597 3.08053 15.3818 3.08053C15.1936 3.08053 15.0126 3.14971 14.8721 3.27524L10.0045 7.5739L9.11069 6.77508L9.07505 6.73799C9.04083 6.70304 9.00591 6.67308 8.96599 6.64384L5.11765 3.27168C4.97724 3.14615 4.7969 3.07697 4.60944 3.07697C4.39204 3.07697 4.1839 3.1704 4.03921 3.33302C3.75908 3.64684 3.78617 4.13112 4.10051 4.41285L7.38859 7.27719Z" fill="white"/>
        </g>
        <defs>
        <clipPath id="clip0_238_8428">
        <rect width="20" height="15.3846" fill="white"/>
        </clipPath>
        </defs>
    </symbol>
</svg>